<svg xmlns="http://www.w3.org/2000/svg" width="320" height="240" viewBox="0 0 320 240">
<title>BEATS</title>
<rect width="320" height="240" fill="#000000"/>
<rect x="0" y="0" width="320" height="42" fill="#181c18"/>
<line x1="0" y1="42" x2="320" y2="42" stroke="#393c39" stroke-width="1"/>
<rect x="8" y="8" width="46" height="26" fill="#101410" rx="6" ry="6" stroke="#ff0000" stroke-width="1"/>
<text x="31" y="25" fill="#ffffff" font-family="Arial, Helvetica, sans-serif" font-size="10" font-weight="700" text-anchor="middle">BACK</text>
<text x="160" y="20" fill="#ffffff" font-family="Arial, Helvetica, sans-serif" font-size="18" font-weight="700" text-anchor="middle">BEATS</text>
<text x="160" y="35" fill="#9c9c9c" font-family="Arial, Helvetica, sans-serif" font-size="10" font-weight="500" text-anchor="middle">FOUR  120 BPM</text>
<circle cx="304" cy="14" r="5" fill="#ff0000" stroke="#393c39" stroke-width="1"/>
<rect x="6" y="46" width="308" height="114" fill="#101410" rx="6" ry="6" stroke="#393c39" stroke-width="1"/>
<line x1="47" y1="50" x2="47" y2="154" stroke="#393c39" stroke-width="1"/>
<line x1="111" y1="50" x2="111" y2="154" stroke="#393c39" stroke-width="1"/>
<line x1="175" y1="50" x2="175" y2="154" stroke="#393c39" stroke-width="1"/>
<line x1="239" y1="50" x2="239" y2="154" stroke="#393c39" stroke-width="1"/>
<rect x="10" y="53" width="34" height="22" fill="#101410" rx="4" ry="4" stroke="#ff0000" stroke-width="1"/>
<text x="27" y="68" fill="#ff0000" font-family="Arial, Helvetica, sans-serif" font-size="7" font-weight="700" text-anchor="middle">KCK</text>
<rect x="48" y="52" width="15" height="24" fill="#ffffff" rx="3" ry="3" stroke="#ff0000" stroke-width="1"/>
<circle cx="55.5" cy="64" r="3" fill="#ff0000"/>
<rect x="64" y="52" width="15" height="24" fill="#000000" rx="3" ry="3" stroke="#393c39" stroke-width="1"/>
<rect x="80" y="52" width="15" height="24" fill="#000000" rx="3" ry="3" stroke="#393c39" stroke-width="1"/>
<rect x="96" y="52" width="15" height="24" fill="#000000" rx="3" ry="3" stroke="#393c39" stroke-width="1"/>
<rect x="112" y="52" width="15" height="24" fill="#ffffff" rx="3" ry="3" stroke="#ff0000" stroke-width="1"/>
<circle cx="119.5" cy="64" r="3" fill="#ff0000"/>
<rect x="128" y="52" width="15" height="24" fill="#000000" rx="3" ry="3" stroke="#393c39" stroke-width="1"/>
<rect x="144" y="52" width="15" height="24" fill="#000000" rx="3" ry="3" stroke="#393c39" stroke-width="1"/>
<rect x="160" y="52" width="15" height="24" fill="#000000" rx="3" ry="3" stroke="#393c39" stroke-width="1"/>
<rect x="176" y="52" width="15" height="24" fill="#ffffff" rx="3" ry="3" stroke="#ff0000" stroke-width="1"/>
<circle cx="183.5" cy="64" r="3" fill="#ff0000"/>
<rect x="192" y="52" width="15" height="24" fill="#000000" rx="3" ry="3" stroke="#393c39" stroke-width="1"/>
<rect x="208" y="52" width="15" height="24" fill="#000000" rx="3" ry="3" stroke="#393c39" stroke-width="1"/>
<rect x="224" y="52" width="15" height="24" fill="#000000" rx="3" ry="3" stroke="#393c39" stroke-width="1"/>
<rect x="240" y="52" width="15" height="24" fill="#ffffff" rx="3" ry="3" stroke="#ff0000" stroke-width="1"/>
<circle cx="247.5" cy="64" r="3" fill="#ff0000"/>
<rect x="256" y="52" width="15" height="24" fill="#000000" rx="3" ry="3" stroke="#393c39" stroke-width="1"/>
<rect x="272" y="52" width="15" height="24" fill="#000000" rx="3" ry="3" stroke="#393c39" stroke-width="1"/>
<rect x="288" y="52" width="15" height="24" fill="#000000" rx="3" ry="3" stroke="#393c39" stroke-width="1"/>
<rect x="10" y="81" width="34" height="22" fill="#101410" rx="4" ry="4" stroke="#ffff00" stroke-width="1"/>
<text x="27" y="96" fill="#ffff00" font-family="Arial, Helvetica, sans-serif" font-size="7" font-weight="700" text-anchor="middle">SNR</text>
<rect x="48" y="80" width="15" height="24" fill="#181c18" rx="3" ry="3" stroke="#393c39" stroke-width="1"/>
<rect x="64" y="80" width="15" height="24" fill="#000000" rx="3" ry="3" stroke="#393c39" stroke-width="1"/>
<rect x="80" y="80" width="15" height="24" fill="#000000" rx="3" ry="3" stroke="#393c39" stroke-width="1"/>
<rect x="96" y="80" width="15" height="24" fill="#000000" rx="3" ry="3" stroke="#393c39" stroke-width="1"/>
<rect x="112" y="80" width="15" height="24" fill="#ffffff" rx="3" ry="3" stroke="#ffff00" stroke-width="1"/>
<circle cx="119.5" cy="92" r="3" fill="#ffff00"/>
<rect x="128" y="80" width="15" height="24" fill="#000000" rx="3" ry="3" stroke="#393c39" stroke-width="1"/>
<rect x="144" y="80" width="15" height="24" fill="#000000" rx="3" ry="3" stroke="#393c39" stroke-width="1"/>
<rect x="160" y="80" width="15" height="24" fill="#000000" rx="3" ry="3" stroke="#393c39" stroke-width="1"/>
<rect x="176" y="80" width="15" height="24" fill="#181c18" rx="3" ry="3" stroke="#393c39" stroke-width="1"/>
<rect x="192" y="80" width="15" height="24" fill="#000000" rx="3" ry="3" stroke="#393c39" stroke-width="1"/>
<rect x="208" y="80" width="15" height="24" fill="#000000" rx="3" ry="3" stroke="#393c39" stroke-width="1"/>
<rect x="224" y="80" width="15" height="24" fill="#000000" rx="3" ry="3" stroke="#393c39" stroke-width="1"/>
<rect x="240" y="80" width="15" height="24" fill="#ffffff" rx="3" ry="3" stroke="#ffff00" stroke-width="1"/>
<circle cx="247.5" cy="92" r="3" fill="#ffff00"/>
<rect x="256" y="80" width="15" height="24" fill="#000000" rx="3" ry="3" stroke="#393c39" stroke-width="1"/>
<rect x="272" y="80" width="15" height="24" fill="#000000" rx="3" ry="3" stroke="#393c39" stroke-width="1"/>
<rect x="288" y="80" width="15" height="24" fill="#000000" rx="3" ry="3" stroke="#393c39" stroke-width="1"/>
<rect x="10" y="109" width="34" height="22" fill="#101410" rx="4" ry="4" stroke="#00bfff" stroke-width="1"/>
<text x="27" y="124" fill="#00bfff" font-family="Arial, Helvetica, sans-serif" font-size="7" font-weight="700" text-anchor="middle">HAT</text>
<rect x="48" y="108" width="15" height="24" fill="#181c18" rx="3" ry="3" stroke="#393c39" stroke-width="1"/>
<rect x="64" y="108" width="15" height="24" fill="#000000" rx="3" ry="3" stroke="#393c39" stroke-width="1"/>
<rect x="80" y="108" width="15" height="24" fill="#00bfff" rx="3" ry="3" stroke="#393c39" stroke-width="1"/>
<rect x="96" y="108" width="15" height="24" fill="#000000" rx="3" ry="3" stroke="#393c39" stroke-width="1"/>
<rect x="112" y="108" width="15" height="24" fill="#181c18" rx="3" ry="3" stroke="#393c39" stroke-width="1"/>
<rect x="128" y="108" width="15" height="24" fill="#000000" rx="3" ry="3" stroke="#393c39" stroke-width="1"/>
<rect x="144" y="108" width="15" height="24" fill="#00bfff" rx="3" ry="3" stroke="#393c39" stroke-width="1"/>
<rect x="160" y="108" width="15" height="24" fill="#000000" rx="3" ry="3" stroke="#393c39" stroke-width="1"/>
<rect x="176" y="108" width="15" height="24" fill="#181c18" rx="3" ry="3" stroke="#393c39" stroke-width="1"/>
<rect x="192" y="108" width="15" height="24" fill="#000000" rx="3" ry="3" stroke="#393c39" stroke-width="1"/>
<rect x="208" y="108" width="15" height="24" fill="#00bfff" rx="3" ry="3" stroke="#393c39" stroke-width="1"/>
<rect x="224" y="108" width="15" height="24" fill="#000000" rx="3" ry="3" stroke="#393c39" stroke-width="1"/>
<rect x="240" y="108" width="15" height="24" fill="#181c18" rx="3" ry="3" stroke="#393c39" stroke-width="1"/>
<rect x="256" y="108" width="15" height="24" fill="#000000" rx="3" ry="3" stroke="#393c39" stroke-width="1"/>
<rect x="272" y="108" width="15" height="24" fill="#00bfff" rx="3" ry="3" stroke="#393c39" stroke-width="1"/>
<rect x="288" y="108" width="15" height="24" fill="#000000" rx="3" ry="3" stroke="#393c39" stroke-width="1"/>
<rect x="10" y="137" width="34" height="22" fill="#101410" rx="4" ry="4" stroke="#00ffff" stroke-width="1"/>
<text x="27" y="152" fill="#00ffff" font-family="Arial, Helvetica, sans-serif" font-size="7" font-weight="700" text-anchor="middle">OPN</text>
<rect x="48" y="136" width="15" height="24" fill="#181c18" rx="3" ry="3" stroke="#393c39" stroke-width="1"/>
<rect x="64" y="136" width="15" height="24" fill="#000000" rx="3" ry="3" stroke="#393c39" stroke-width="1"/>
<rect x="80" y="136" width="15" height="24" fill="#000000" rx="3" ry="3" stroke="#393c39" stroke-width="1"/>
<rect x="96" y="136" width="15" height="24" fill="#000000" rx="3" ry="3" stroke="#393c39" stroke-width="1"/>
<rect x="112" y="136" width="15" height="24" fill="#181c18" rx="3" ry="3" stroke="#393c39" stroke-width="1"/>
<rect x="128" y="136" width="15" height="24" fill="#000000" rx="3" ry="3" stroke="#393c39" stroke-width="1"/>
<rect x="144" y="136" width="15" height="24" fill="#000000" rx="3" ry="3" stroke="#393c39" stroke-width="1"/>
<rect x="160" y="136" width="15" height="24" fill="#000000" rx="3" ry="3" stroke="#393c39" stroke-width="1"/>
<rect x="176" y="136" width="15" height="24" fill="#181c18" rx="3" ry="3" stroke="#393c39" stroke-width="1"/>
<rect x="192" y="136" width="15" height="24" fill="#000000" rx="3" ry="3" stroke="#393c39" stroke-width="1"/>
<rect x="208" y="136" width="15" height="24" fill="#000000" rx="3" ry="3" stroke="#393c39" stroke-width="1"/>
<rect x="224" y="136" width="15" height="24" fill="#000000" rx="3" ry="3" stroke="#393c39" stroke-width="1"/>
<rect x="240" y="136" width="15" height="24" fill="#181c18" rx="3" ry="3" stroke="#393c39" stroke-width="1"/>
<rect x="256" y="136" width="15" height="24" fill="#000000" rx="3" ry="3" stroke="#393c39" stroke-width="1"/>
<rect x="272" y="136" width="15" height="24" fill="#000000" rx="3" ry="3" stroke="#393c39" stroke-width="1"/>
<rect x="288" y="136" width="15" height="24" fill="#00ffff" rx="3" ry="3" stroke="#393c39" stroke-width="1"/>
<rect x="9" y="174" width="50" height="24" fill="#000000" rx="6" ry="6"/>
<rect x="8" y="172" width="50" height="24" fill="#101410" rx="6" ry="6" stroke="#00ff00" stroke-width="1"/>
<text x="33.0" y="188.0" fill="#ffffff" font-family="Arial, Helvetica, sans-serif" font-size="10" font-weight="700" text-anchor="middle">PLAY</text>
<rect x="65" y="174" width="44" height="24" fill="#000000" rx="6" ry="6"/>
<rect x="64" y="172" width="44" height="24" fill="#101410" rx="6" ry="6" stroke="#00ffff" stroke-width="1"/>
<text x="86.0" y="188.0" fill="#ffffff" font-family="Arial, Helvetica, sans-serif" font-size="10" font-weight="700" text-anchor="middle">PAT</text>
<rect x="115" y="174" width="44" height="24" fill="#000000" rx="6" ry="6"/>
<rect x="114" y="172" width="44" height="24" fill="#101410" rx="6" ry="6" stroke="#ffff00" stroke-width="1"/>
<text x="136.0" y="188.0" fill="#ffffff" font-family="Arial, Helvetica, sans-serif" font-size="10" font-weight="700" text-anchor="middle">FILL</text>
<rect x="165" y="174" width="44" height="24" fill="#000000" rx="6" ry="6"/>
<rect x="164" y="172" width="44" height="24" fill="#101410" rx="6" ry="6" stroke="#ff0000" stroke-width="1"/>
<text x="186.0" y="188.0" fill="#ffffff" font-family="Arial, Helvetica, sans-serif" font-size="10" font-weight="700" text-anchor="middle">CLR</text>
<rect x="219" y="174" width="28" height="24" fill="#000000" rx="6" ry="6"/>
<rect x="218" y="172" width="28" height="24" fill="#101410" rx="6" ry="6" stroke="#ffaa00" stroke-width="1"/>
<text x="232.0" y="188.0" fill="#ffffff" font-family="Arial, Helvetica, sans-serif" font-size="10" font-weight="700" text-anchor="middle">SW-</text>
<rect x="289" y="174" width="24" height="24" fill="#000000" rx="6" ry="6"/>
<rect x="288" y="172" width="24" height="24" fill="#101410" rx="6" ry="6" stroke="#ffaa00" stroke-width="1"/>
<text x="300.0" y="188.0" fill="#ffffff" font-family="Arial, Helvetica, sans-serif" font-size="10" font-weight="700" text-anchor="middle">+</text>
<rect x="9" y="208" width="46" height="26" fill="#000000" rx="6" ry="6"/>
<rect x="8" y="206" width="46" height="26" fill="#101410" rx="6" ry="6" stroke="#ffaa00" stroke-width="1"/>
<text x="31.0" y="223.0" fill="#ffffff" font-family="Arial, Helvetica, sans-serif" font-size="10" font-weight="700" text-anchor="middle">BPM-</text>
<rect x="129" y="208" width="46" height="26" fill="#000000" rx="6" ry="6"/>
<rect x="128" y="206" width="46" height="26" fill="#101410" rx="6" ry="6" stroke="#ffaa00" stroke-width="1"/>
<text x="151.0" y="223.0" fill="#ffffff" font-family="Arial, Helvetica, sans-serif" font-size="10" font-weight="700" text-anchor="middle">BPM+</text>
<rect x="252" y="172" width="30" height="24" fill="#101410" rx="5" ry="5" stroke="#393c39" stroke-width="1"/>
<text x="267" y="188" fill="#9c9c9c" font-family="Arial, Helvetica, sans-serif" font-size="8" font-weight="700" text-anchor="middle">50</text>
<rect x="62" y="206" width="58" height="26" fill="#101410" rx="5" ry="5" stroke="#393c39" stroke-width="1"/>
<text x="91" y="224" fill="#ffffff" font-family="Arial, Helvetica, sans-serif" font-size="12" font-weight="700" text-anchor="middle">120</text>
<rect x="188" y="206" width="124" height="26" fill="#101410" rx="5" ry="5" stroke="#393c39" stroke-width="1"/>
<text x="250" y="224" fill="#9c9c9c" font-family="Arial, Helvetica, sans-serif" font-size="10" font-weight="700" text-anchor="middle">CH 10  FOUR</text>
</svg>
