<svg xmlns="http://www.w3.org/2000/svg" width="320" height="240" viewBox="0 0 320 240">
<title>ZEN</title>
<rect width="320" height="240" fill="#000000"/>
<rect x="0" y="0" width="320" height="42" fill="#181c18"/>
<line x1="0" y1="42" x2="320" y2="42" stroke="#393c39" stroke-width="1"/>
<rect x="8" y="8" width="46" height="26" fill="#101410" rx="6" ry="6" stroke="#ff0000" stroke-width="1"/>
<text x="31" y="25" fill="#ffffff" font-family="Arial, Helvetica, sans-serif" font-size="10" font-weight="700" text-anchor="middle">BACK</text>
<text x="160" y="20" fill="#ffffff" font-family="Arial, Helvetica, sans-serif" font-size="18" font-weight="700" text-anchor="middle">ZEN</text>
<text x="160" y="35" fill="#9c9c9c" font-family="Arial, Helvetica, sans-serif" font-size="10" font-weight="500" text-anchor="middle">Ambient Bouncing</text>
<circle cx="304" cy="14" r="5" fill="#ff0000" stroke="#393c39" stroke-width="1"/>
<rect x="44" y="54" width="238" height="132" fill="#101410" rx="6" ry="6" stroke="#393c39" stroke-width="1"/>
<rect x="50" y="60" width="28" height="3" fill="#00bfff"/>
<rect x="50" y="177" width="28" height="3" fill="#00ffff"/>
<rect x="78" y="60" width="28" height="3" fill="#00bfff"/>
<rect x="78" y="177" width="28" height="3" fill="#00ffff"/>
<rect x="106" y="60" width="28" height="3" fill="#00bfff"/>
<rect x="106" y="177" width="28" height="3" fill="#00ffff"/>
<rect x="134" y="60" width="28" height="3" fill="#00bfff"/>
<rect x="134" y="177" width="28" height="3" fill="#00ffff"/>
<rect x="162" y="60" width="28" height="3" fill="#00bfff"/>
<rect x="162" y="177" width="28" height="3" fill="#00ffff"/>
<rect x="190" y="60" width="28" height="3" fill="#00bfff"/>
<rect x="190" y="177" width="28" height="3" fill="#00ffff"/>
<rect x="218" y="60" width="28" height="3" fill="#00bfff"/>
<rect x="218" y="177" width="28" height="3" fill="#00ffff"/>
<rect x="246" y="60" width="28" height="3" fill="#00bfff"/>
<rect x="246" y="177" width="28" height="3" fill="#00ffff"/>
<rect x="50" y="63" width="3" height="28" fill="#ffff00"/>
<rect x="272" y="63" width="3" height="28" fill="#ffaa00"/>
<rect x="50" y="91" width="3" height="28" fill="#ffff00"/>
<rect x="272" y="91" width="3" height="28" fill="#ffaa00"/>
<rect x="50" y="119" width="3" height="28" fill="#ffff00"/>
<rect x="272" y="119" width="3" height="28" fill="#ffaa00"/>
<rect x="50" y="147" width="3" height="28" fill="#ffff00"/>
<rect x="272" y="147" width="3" height="28" fill="#ffaa00"/>
<circle cx="130" cy="116" r="6" fill="#5abfff" stroke="#ffffff" stroke-width="1"/>
<circle cx="194" cy="92" r="5" fill="#b2ff7a" stroke="#ffffff" stroke-width="1"/>
<rect x="8" y="188" width="304" height="12" fill="#101410" rx="3" ry="3"/>
<text x="160" y="198" fill="#9c9c9c" font-family="Arial, Helvetica, sans-serif" font-size="8" font-weight="500" text-anchor="middle">C-1 Major  Oct 4  Balls 2</text>
<rect x="9" y="204" width="44" height="30" fill="#000000" rx="6" ry="6"/>
<rect x="8" y="202" width="44" height="30" fill="#101410" rx="6" ry="6" stroke="#00ff00" stroke-width="1"/>
<text x="30.0" y="221.0" fill="#ffffff" font-family="Arial, Helvetica, sans-serif" font-size="10" font-weight="700" text-anchor="middle">ADD</text>
<rect x="59" y="204" width="54" height="30" fill="#000000" rx="6" ry="6"/>
<rect x="58" y="202" width="54" height="30" fill="#101410" rx="6" ry="6" stroke="#ffff00" stroke-width="1"/>
<text x="85.0" y="221.0" fill="#ffffff" font-family="Arial, Helvetica, sans-serif" font-size="10" font-weight="700" text-anchor="middle">RESET</text>
<rect x="121" y="204" width="58" height="30" fill="#000000" rx="6" ry="6"/>
<rect x="120" y="202" width="58" height="30" fill="#101410" rx="6" ry="6" stroke="#00ffff" stroke-width="1"/>
<text x="149.0" y="221.0" fill="#ffffff" font-family="Arial, Helvetica, sans-serif" font-size="10" font-weight="700" text-anchor="middle">SCALE</text>
<rect x="187" y="204" width="42" height="30" fill="#000000" rx="6" ry="6"/>
<rect x="186" y="202" width="42" height="30" fill="#101410" rx="6" ry="6" stroke="#ffaa00" stroke-width="1"/>
<text x="207.0" y="221.0" fill="#ffffff" font-family="Arial, Helvetica, sans-serif" font-size="10" font-weight="700" text-anchor="middle">KEY-</text>
<rect x="235" y="204" width="42" height="30" fill="#000000" rx="6" ry="6"/>
<rect x="234" y="202" width="42" height="30" fill="#101410" rx="6" ry="6" stroke="#ffaa00" stroke-width="1"/>
<text x="255.0" y="221.0" fill="#ffffff" font-family="Arial, Helvetica, sans-serif" font-size="10" font-weight="700" text-anchor="middle">KEY+</text>
<rect x="283" y="204" width="30" height="30" fill="#000000" rx="6" ry="6"/>
<rect x="282" y="202" width="30" height="30" fill="#101410" rx="6" ry="6" stroke="#00bfff" stroke-width="1"/>
<text x="297.0" y="221.0" fill="#ffffff" font-family="Arial, Helvetica, sans-serif" font-size="10" font-weight="700" text-anchor="middle">O</text>
</svg>
